<svg xmlns="http://www.w3.org/2000/svg" viewBox="0 0 420 96" role="img" aria-label="DriveLoc logo">
  <defs>
    <linearGradient id="accent" x1="0" y1="0" x2="1" y2="1">
      <stop offset="0" stop-color="#ff7f1f"/>
      <stop offset="1" stop-color="#ff4d00"/>
    </linearGradient>
  </defs>

  <g transform="translate(4,6)">
    <rect x="0" y="0" width="84" height="84" rx="18" fill="#0e0e0e"/>
    <path d="M18 65V19h26c14 0 25 10 25 23s-11 23-25 23H18zm18-11h7c7 0 13-5 13-12s-6-12-13-12h-7v24z" fill="#ffffff"/>
    <circle cx="41" cy="42" r="10" fill="none" stroke="url(#accent)" stroke-width="3"/>
    <circle cx="41" cy="42" r="2.6" fill="url(#accent)"/>
    <path d="M41 42L48 37M41 42L33 37M41 42L41 50" stroke="url(#accent)" stroke-width="2" stroke-linecap="round"/>
    <path d="M62 22h8v38h-8z" fill="url(#accent)"/>
    <circle cx="66" cy="22" r="4" fill="url(#accent)"/>
    <path d="M11 72h62l-7 8H4z" fill="url(#accent)"/>
  </g>

  <g transform="translate(108,16)">
    <text x="0" y="40" font-family="Montserrat, Arial, sans-serif" font-size="54" font-weight="800" letter-spacing="1.2" fill="#ffffff">DRIVE</text>
    <text x="176" y="40" font-family="Montserrat, Arial, sans-serif" font-size="54" font-weight="800" letter-spacing="1.2" fill="url(#accent)">LOC</text>
    <text x="0" y="67" font-family="Montserrat, Arial, sans-serif" font-size="15" font-weight="600" letter-spacing="4" fill="#cfcfcf">PREMIUM CAR RENTAL</text>
  </g>
</svg>
